<?xml version="1.0" standalone="no"?>
<!DOCTYPE svg PUBLIC "-//W3C//DTD SVG 20010904//EN"
 "http://www.w3.org/TR/2001/REC-SVG-20010904/DTD/svg10.dtd">
<svg version="1.0" xmlns="http://www.w3.org/2000/svg"
 width="200.000000pt" height="200.000000pt" viewBox="0 0 200.000000 200.000000"
 preserveAspectRatio="xMidYMid meet">
<metadata>
Created by potrace 1.15, written by Peter Selinger 2001-2017
</metadata>
<g transform="translate(0.000000,200.000000) scale(0.100000,-0.100000)"
fill="#000000" stroke="none">
<path d="M902 1344 c-11 -12 -11 -18 0 -31 12 -15 11 -15 -9 -2 -33 20 -40 2
-11 -29 23 -23 24 -29 12 -40 -14 -13 -15 -12 -39 56 -8 21 -24 4 -19 -21 l5
-22 -10 23 c-9 20 -13 21 -31 10 -21 -13 -24 -28 -14 -66 6 -19 11 -22 39 -16
25 4 34 2 39 -11 5 -15 1 -16 -34 -10 -38 6 -57 -6 -27 -18 7 -3 5 -6 -5 -6
-12 -1 -18 -9 -18 -25 0 -18 8 -27 31 -35 45 -16 47 -15 55 24 7 37 10 40 34
25 12 -8 10 -14 -14 -39 -33 -34 -28 -55 5 -25 l22 19 -14 -24 c-11 -18 -11
-25 -1 -28 46 -17 -16 -23 -243 -23 -163 0 -255 -4 -255 -10 0 -7 180 -10 520
-10 340 0 520 3 520 10 0 6 -92 10 -255 10 -227 0 -289 6 -242 23 9 3 9 10 -2
28 l-14 24 22 -19 c33 -30 38 -9 5 25 -23 24 -26 32 -14 39 19 12 27 5 35 -30
7 -33 10 -34 52 -19 23 7 31 16 31 35 0 13 -4 24 -9 24 -5 0 -6 7 -2 16 5 14
0 15 -34 10 -33 -6 -40 -4 -40 9 0 14 7 16 39 11 42 -7 52 8 16 25 -21 9 -21
9 5 4 23 -5 27 -2 27 19 0 20 -15 35 -40 40 -3 1 -11 5 -18 9 -11 8 -32 -27
-32 -53 0 -5 -9 -8 -20 -7 -26 2 -25 5 7 39 30 31 24 49 -10 29 -20 -13 -21
-13 -9 2 12 14 12 19 -1 32 -19 18 -19 18 -35 -1z"/>
<path d="M520 910 c-24 -24 -26 -67 -4 -98 18 -27 84 -31 108 -6 22 22 21 87
-2 107 -25 23 -78 21 -102 -3z"/>
<path d="M400 680 c0 -7 178 -10 515 -10 337 0 515 3 515 10 0 7 -178 10 -515
10 -337 0 -515 -3 -515 -10z"/>
</g>
</svg>
